{
	"asset":{
		"generator":"Khronos glTF Blender I/O v4.5.47",
		"version":"2.0"
	},
	"extensionsUsed":[
		"KHR_materials_specular"
	],
	"scene":0,
	"scenes":[
		{
			"name":"Scene",
			"nodes":[
				29
			]
		}
	],
	"nodes":[
		{
			"name":"Cube.001"
		},
		{
			"children":[
				0
			],
			"name":"Cube",
			"rotation":[
				-0.70710688829422,
				0,
				0,
				0.7071066498756409
			],
			"scale":[
				100,
				99.99999237060547,
				99.99999237060547
			],
			"translation":[
				0,
				100.58411407470703,
				0
			]
		},
		{
			"mesh":0,
			"name":"Cube.011_Material_0"
		},
		{
			"mesh":1,
			"name":"Cube.012_Material_0"
		},
		{
			"children":[
				3
			],
			"name":"Cube.012"
		},
		{
			"mesh":2,
			"name":"Cube.013_Material_0"
		},
		{
			"mesh":3,
			"name":"Cube.015_Material_0",
			"translation":[
				0,
				4.0531158447265625e-06,
				0
			]
		},
		{
			"children":[
				6
			],
			"name":"Cube.015",
			"rotation":[
				0,
				0.70710688829422,
				0.7071066498756409,
				2.2767038387883076e-07
			],
			"scale":[
				0.052054163068532944,
				0.014263741672039032,
				0.20093093812465668
			],
			"translation":[
				0.10610724985599518,
				-1.019730567932129,
				0.21920134127140045
			]
		},
		{
			"mesh":4,
			"name":"Cube.016_Material_0"
		},
		{
			"children":[
				8
			],
			"name":"Cube.016",
			"rotation":[
				0.0018604228971526027,
				0,
				0,
				1
			],
			"scale":[
				1.0048856735229492,
				1.0048857927322388,
				1.0048856735229492
			],
			"translation":[
				-0.003940525930374861,
				0.0009636813774704933,
				-0.0004090406000614166
			]
		},
		{
			"mesh":5,
			"name":"Cube.017_Material_0"
		},
		{
			"children":[
				10
			],
			"name":"Cube.017",
			"rotation":[
				0,
				-0.14114311337471008,
				0,
				0.9899892210960388
			],
			"scale":[
				0.1352097988128662,
				0.16751103103160858,
				0.16751104593276978
			],
			"translation":[
				0,
				-1.0331403017044067,
				0.23584653437137604
			]
		},
		{
			"mesh":6,
			"name":"Cube.018_Material_0"
		},
		{
			"children":[
				12
			],
			"name":"Cube.018",
			"rotation":[
				0,
				-0.0018604124197736382,
				-0.9999982714653015,
				3.138133024549461e-07
			],
			"scale":[
				0.6620977520942688,
				1.0048856735229492,
				1.0048856735229492
			],
			"translation":[
				-0.003940059803426266,
				-2.0618600845336914,
				-0.0026197191327810287
			]
		},
		{
			"mesh":7,
			"name":"Cube.033_Material_0"
		},
		{
			"children":[
				14
			],
			"name":"Cube.033",
			"rotation":[
				0,
				0.5421373844146729,
				-0.8402898907661438,
				2.77791031066954e-07
			],
			"scale":[
				0.6620978116989136,
				1.0048857927322388,
				1.0048857927322388
			],
			"translation":[
				-0.003940555267035961,
				-2.06139874458313,
				-0.0064975544810295105
			]
		},
		{
			"children":[
				5,
				7,
				9,
				11,
				13,
				15
			],
			"name":"Cube.013",
			"rotation":[
				-0.6470479369163513,
				0,
				0,
				0.762449324131012
			],
			"scale":[
				1.0048857927322388,
				1.0048856735229492,
				1.0048856735229492
			],
			"translation":[
				0.0002195865090470761,
				1.0351879596710205,
				1.9235494136810303
			]
		},
		{
			"mesh":8,
			"name":"Cube.014_Material_0",
			"translation":[
				0,
				-4.0820905269356444e-06,
				0
			]
		},
		{
			"children":[
				17
			],
			"name":"Cube.014",
			"rotation":[
				0,
				-0.7071066498756409,
				0,
				0.70710688829422
			],
			"scale":[
				0.05205417051911354,
				0.014263744466006756,
				0.12769077718257904
			],
			"translation":[
				0.6162054538726807,
				1.0085653066635132,
				1.8129611015319824
			]
		},
		{
			"mesh":9,
			"name":"Cube.020_Material_0",
			"translation":[
				0,
				0,
				-2.59708690464322e-06
			]
		},
		{
			"children":[
				19
			],
			"name":"Cube.020",
			"scale":[
				0.021279746666550636,
				0.0754677876830101,
				0.07227527350187302
			],
			"translation":[
				-0.0019278222462162375,
				-1.0534002780914307,
				1.7731990814208984
			]
		},
		{
			"children":[
				2,
				4,
				16,
				18,
				20
			],
			"name":"Cube.011",
			"rotation":[
				-0.697528064250946,
				0.11599376052618027,
				0.11599376797676086,
				0.6975281238555908
			],
			"scale":[
				100,
				99.99999237060547,
				99.99999237060547
			],
			"translation":[
				16.38311767578125,
				100.58411407470703,
				-11.383142471313477
			]
		},
		{
			"name":"Cube.022"
		},
		{
			"name":"Cube.030",
			"scale":[
				0.021279746666550636,
				0.0754677802324295,
				0.07227527350187302
			],
			"translation":[
				-0.0019268709002062678,
				-1.0534001588821411,
				1.7731987237930298
			]
		},
		{
			"children":[
				22,
				23
			],
			"name":"Cube.021",
			"rotation":[
				-0.70721036195755,
				0.027906320989131927,
				0.705898106098175,
				0.027978194877505302
			],
			"scale":[
				100.00000762939453,
				100.00003051757812,
				100.00000762939453
			],
			"translation":[
				257.6968688964844,
				108.1131820678711,
				424.9831237792969
			]
		},
		{
			"name":"Cube.031",
			"rotation":[
				-0.7064895033836365,
				0,
				0,
				0.7077236175537109
			],
			"scale":[
				100.48857116699219,
				100.48858642578125,
				100.48858642578125
			],
			"translation":[
				-637.9384765625,
				-2.221017837524414,
				282.7796936035156
			]
		},
		{
			"name":"Cube.039",
			"rotation":[
				1,
				0,
				0,
				7.549790126404332e-08
			],
			"scale":[
				100,
				99.99999237060547,
				99.99999237060547
			],
			"translation":[
				-1104.5819091796875,
				102.3156967163086,
				489.6463317871094
			]
		},
		{
			"children":[
				1,
				21,
				24,
				25,
				26
			],
			"name":"RootNode"
		},
		{
			"children":[
				27
			],
			"name":"1018d976507a46e6bfd187e5032c4901.fbx",
			"rotation":[
				0.70710688829422,
				0,
				0,
				0.7071066498756409
			],
			"scale":[
				0.009999999776482582,
				0.010000000707805157,
				0.010000000707805157
			]
		},
		{
			"children":[
				28
			],
			"name":"Sketchfab_model",
			"rotation":[
				-0.70710688829422,
				0,
				0,
				0.7071066498756409
			]
		}
	],
	"materials":[
		{
			"doubleSided":true,
			"extensions":{
				"KHR_materials_specular":{
					"specularFactor":0.5650628209114075
				}
			},
			"name":"Material.001",
			"pbrMetallicRoughness":{
				"baseColorFactor":[
					0.3343220055103302,
					0.3343220055103302,
					0.3343220055103302,
					1
				],
				"roughnessFactor":0.08818601071834564
			}
		}
	],
	"meshes":[
		{
			"name":"Cube.011_Material_0",
			"primitives":[
				{
					"attributes":{
						"POSITION":0,
						"NORMAL":1,
						"TEXCOORD_0":2
					},
					"indices":3,
					"material":0
				}
			]
		},
		{
			"name":"Cube.012_Material_0",
			"primitives":[
				{
					"attributes":{
						"POSITION":4,
						"NORMAL":5,
						"TEXCOORD_0":6
					},
					"indices":7,
					"material":0
				}
			]
		},
		{
			"name":"Cube.013_Material_0",
			"primitives":[
				{
					"attributes":{
						"POSITION":8,
						"NORMAL":9,
						"TEXCOORD_0":10
					},
					"indices":11,
					"material":0
				}
			]
		},
		{
			"name":"Cube.015_Material_0",
			"primitives":[
				{
					"attributes":{
						"POSITION":12,
						"NORMAL":13,
						"TEXCOORD_0":14
					},
					"indices":15,
					"material":0
				}
			]
		},
		{
			"name":"Cube.016_Material_0",
			"primitives":[
				{
					"attributes":{
						"POSITION":16,
						"NORMAL":17,
						"TEXCOORD_0":18
					},
					"indices":19,
					"material":0
				}
			]
		},
		{
			"name":"Cube.017_Material_0",
			"primitives":[
				{
					"attributes":{
						"POSITION":20,
						"NORMAL":21,
						"TEXCOORD_0":22
					},
					"indices":23,
					"material":0
				}
			]
		},
		{
			"name":"Cube.018_Material_0",
			"primitives":[
				{
					"attributes":{
						"POSITION":24,
						"NORMAL":25,
						"TEXCOORD_0":26
					},
					"indices":27,
					"material":0
				}
			]
		},
		{
			"name":"Cube.033_Material_0",
			"primitives":[
				{
					"attributes":{
						"POSITION":28,
						"NORMAL":29,
						"TEXCOORD_0":30
					},
					"indices":31,
					"material":0
				}
			]
		},
		{
			"name":"Cube.014_Material_0",
			"primitives":[
				{
					"attributes":{
						"POSITION":32,
						"NORMAL":33,
						"TEXCOORD_0":34
					},
					"indices":35,
					"material":0
				}
			]
		},
		{
			"name":"Cube.020_Material_0",
			"primitives":[
				{
					"attributes":{
						"POSITION":36,
						"NORMAL":37,
						"TEXCOORD_0":38
					},
					"indices":39,
					"material":0
				}
			]
		}
	],
	"accessors":[
		{
			"bufferView":0,
			"componentType":5126,
			"count":2630,
			"max":[
				1.0191434621810913,
				1.0191197395324707,
				2.0524675846099854
			],
			"min":[
				-1.019098162651062,
				-1.019121766090393,
				-1.001803994178772
			],
			"type":"VEC3"
		},
		{
			"bufferView":1,
			"componentType":5126,
			"count":2630,
			"type":"VEC3"
		},
		{
			"bufferView":2,
			"componentType":5126,
			"count":2630,
			"type":"VEC2"
		},
		{
			"bufferView":3,
			"componentType":5123,
			"count":14112,
			"type":"SCALAR"
		},
		{
			"bufferView":4,
			"componentType":5126,
			"count":1659,
			"max":[
				1.0000001192092896,
				1.0000001192092896,
				2.0524675846099854
			],
			"min":[
				-1.0000001192092896,
				-1.0000001192092896,
				-0.9080207943916321
			],
			"type":"VEC3"
		},
		{
			"bufferView":5,
			"componentType":5126,
			"count":1659,
			"type":"VEC3"
		},
		{
			"bufferView":6,
			"componentType":5126,
			"count":1659,
			"type":"VEC2"
		},
		{
			"bufferView":7,
			"componentType":5123,
			"count":8352,
			"type":"SCALAR"
		},
		{
			"bufferView":8,
			"componentType":5126,
			"count":14780,
			"max":[
				1.0153639316558838,
				-0.01607426255941391,
				0.21063688397407532
			],
			"min":[
				-1.0153276920318604,
				-2.0468738079071045,
				0.025829549878835678
			],
			"type":"VEC3"
		},
		{
			"bufferView":9,
			"componentType":5126,
			"count":14780,
			"type":"VEC3"
		},
		{
			"bufferView":10,
			"componentType":5126,
			"count":14780,
			"type":"VEC2"
		},
		{
			"bufferView":11,
			"componentType":5123,
			"count":76032,
			"type":"SCALAR"
		},
		{
			"bufferView":12,
			"componentType":5126,
			"count":625,
			"max":[
				5.435906887054443,
				3.6794447898864746,
				0.9966230392456055
			],
			"min":[
				-1.3955360651016235,
				-0.46857181191444397,
				-0.9974462985992432
			],
			"type":"VEC3"
		},
		{
			"bufferView":13,
			"componentType":5126,
			"count":625,
			"type":"VEC3"
		},
		{
			"bufferView":14,
			"componentType":5126,
			"count":625,
			"type":"VEC2"
		},
		{
			"bufferView":15,
			"componentType":5123,
			"count":2448,
			"type":"SCALAR"
		},
		{
			"bufferView":16,
			"componentType":5126,
			"count":15440,
			"max":[
				0.740061342716217,
				0.009818999096751213,
				0.16566425561904907
			],
			"min":[
				-0.7279626131057739,
				-0.03542831912636757,
				-0.006521278526633978
			],
			"type":"VEC3"
		},
		{
			"bufferView":17,
			"componentType":5126,
			"count":15440,
			"type":"VEC3"
		},
		{
			"bufferView":18,
			"componentType":5126,
			"count":15440,
			"type":"VEC2"
		},
		{
			"bufferView":19,
			"componentType":5123,
			"count":81408,
			"type":"SCALAR"
		},
		{
			"bufferView":20,
			"componentType":5126,
			"count":4230,
			"max":[
				0.18159428238868713,
				1.6519170999526978,
				1.3340328931808472
			],
			"min":[
				-0.1888069361448288,
				-1.4793740510940552,
				-0.1649831235408783
			],
			"type":"VEC3"
		},
		{
			"bufferView":21,
			"componentType":5126,
			"count":4230,
			"type":"VEC3"
		},
		{
			"bufferView":22,
			"componentType":5126,
			"count":4230,
			"type":"VEC2"
		},
		{
			"bufferView":23,
			"componentType":5123,
			"count":23040,
			"type":"SCALAR"
		},
		{
			"bufferView":24,
			"componentType":5126,
			"count":7717,
			"max":[
				0.126067653298378,
				0.009818999096751213,
				0.16566425561904907
			],
			"min":[
				-0.1280723363161087,
				-0.03542831912636757,
				-0.006521278526633978
			],
			"type":"VEC3"
		},
		{
			"bufferView":25,
			"componentType":5126,
			"count":7717,
			"type":"VEC3"
		},
		{
			"bufferView":26,
			"componentType":5126,
			"count":7717,
			"type":"VEC2"
		},
		{
			"bufferView":27,
			"componentType":5123,
			"count":40704,
			"type":"SCALAR"
		},
		{
			"bufferView":28,
			"componentType":5126,
			"count":5611,
			"max":[
				0.1256161779165268,
				0.01306588388979435,
				-0.0005910191684961319
			],
			"min":[
				-0.1277477890253067,
				-0.006098994053900242,
				-0.29918795824050903
			],
			"type":"VEC3"
		},
		{
			"bufferView":29,
			"componentType":5126,
			"count":5611,
			"type":"VEC3"
		},
		{
			"bufferView":30,
			"componentType":5126,
			"count":5611,
			"type":"VEC2"
		},
		{
			"bufferView":31,
			"componentType":5123,
			"count":29952,
			"type":"SCALAR"
		},
		{
			"bufferView":32,
			"componentType":5126,
			"count":794,
			"max":[
				2.048112154006958,
				2.1132125854492188,
				10.595995903015137
			],
			"min":[
				-0.9934283494949341,
				-0.46857157349586487,
				-0.9974457621574402
			],
			"type":"VEC3"
		},
		{
			"bufferView":33,
			"componentType":5126,
			"count":794,
			"type":"VEC3"
		},
		{
			"bufferView":34,
			"componentType":5126,
			"count":794,
			"type":"VEC2"
		},
		{
			"bufferView":35,
			"componentType":5123,
			"count":3312,
			"type":"SCALAR"
		},
		{
			"bufferView":36,
			"componentType":5126,
			"count":1431,
			"max":[
				0.7051506638526917,
				0.9807894825935364,
				1.0599560737609863
			],
			"min":[
				-0.7051506638526917,
				-0.19464607536792755,
				-1.0591431856155396
			],
			"type":"VEC3"
		},
		{
			"bufferView":37,
			"componentType":5126,
			"count":1431,
			"type":"VEC3"
		},
		{
			"bufferView":38,
			"componentType":5126,
			"count":1431,
			"type":"VEC2"
		},
		{
			"bufferView":39,
			"componentType":5123,
			"count":6720,
			"type":"SCALAR"
		}
	],
	"bufferViews":[
		{
			"buffer":0,
			"byteLength":31560,
			"byteOffset":0,
			"target":34962
		},
		{
			"buffer":0,
			"byteLength":31560,
			"byteOffset":31560,
			"target":34962
		},
		{
			"buffer":0,
			"byteLength":21040,
			"byteOffset":63120,
			"target":34962
		},
		{
			"buffer":0,
			"byteLength":28224,
			"byteOffset":84160,
			"target":34963
		},
		{
			"buffer":0,
			"byteLength":19908,
			"byteOffset":112384,
			"target":34962
		},
		{
			"buffer":0,
			"byteLength":19908,
			"byteOffset":132292,
			"target":34962
		},
		{
			"buffer":0,
			"byteLength":13272,
			"byteOffset":152200,
			"target":34962
		},
		{
			"buffer":0,
			"byteLength":16704,
			"byteOffset":165472,
			"target":34963
		},
		{
			"buffer":0,
			"byteLength":177360,
			"byteOffset":182176,
			"target":34962
		},
		{
			"buffer":0,
			"byteLength":177360,
			"byteOffset":359536,
			"target":34962
		},
		{
			"buffer":0,
			"byteLength":118240,
			"byteOffset":536896,
			"target":34962
		},
		{
			"buffer":0,
			"byteLength":152064,
			"byteOffset":655136,
			"target":34963
		},
		{
			"buffer":0,
			"byteLength":7500,
			"byteOffset":807200,
			"target":34962
		},
		{
			"buffer":0,
			"byteLength":7500,
			"byteOffset":814700,
			"target":34962
		},
		{
			"buffer":0,
			"byteLength":5000,
			"byteOffset":822200,
			"target":34962
		},
		{
			"buffer":0,
			"byteLength":4896,
			"byteOffset":827200,
			"target":34963
		},
		{
			"buffer":0,
			"byteLength":185280,
			"byteOffset":832096,
			"target":34962
		},
		{
			"buffer":0,
			"byteLength":185280,
			"byteOffset":1017376,
			"target":34962
		},
		{
			"buffer":0,
			"byteLength":123520,
			"byteOffset":1202656,
			"target":34962
		},
		{
			"buffer":0,
			"byteLength":162816,
			"byteOffset":1326176,
			"target":34963
		},
		{
			"buffer":0,
			"byteLength":50760,
			"byteOffset":1488992,
			"target":34962
		},
		{
			"buffer":0,
			"byteLength":50760,
			"byteOffset":1539752,
			"target":34962
		},
		{
			"buffer":0,
			"byteLength":33840,
			"byteOffset":1590512,
			"target":34962
		},
		{
			"buffer":0,
			"byteLength":46080,
			"byteOffset":1624352,
			"target":34963
		},
		{
			"buffer":0,
			"byteLength":92604,
			"byteOffset":1670432,
			"target":34962
		},
		{
			"buffer":0,
			"byteLength":92604,
			"byteOffset":1763036,
			"target":34962
		},
		{
			"buffer":0,
			"byteLength":61736,
			"byteOffset":1855640,
			"target":34962
		},
		{
			"buffer":0,
			"byteLength":81408,
			"byteOffset":1917376,
			"target":34963
		},
		{
			"buffer":0,
			"byteLength":67332,
			"byteOffset":1998784,
			"target":34962
		},
		{
			"buffer":0,
			"byteLength":67332,
			"byteOffset":2066116,
			"target":34962
		},
		{
			"buffer":0,
			"byteLength":44888,
			"byteOffset":2133448,
			"target":34962
		},
		{
			"buffer":0,
			"byteLength":59904,
			"byteOffset":2178336,
			"target":34963
		},
		{
			"buffer":0,
			"byteLength":9528,
			"byteOffset":2238240,
			"target":34962
		},
		{
			"buffer":0,
			"byteLength":9528,
			"byteOffset":2247768,
			"target":34962
		},
		{
			"buffer":0,
			"byteLength":6352,
			"byteOffset":2257296,
			"target":34962
		},
		{
			"buffer":0,
			"byteLength":6624,
			"byteOffset":2263648,
			"target":34963
		},
		{
			"buffer":0,
			"byteLength":17172,
			"byteOffset":2270272,
			"target":34962
		},
		{
			"buffer":0,
			"byteLength":17172,
			"byteOffset":2287444,
			"target":34962
		},
		{
			"buffer":0,
			"byteLength":11448,
			"byteOffset":2304616,
			"target":34962
		},
		{
			"buffer":0,
			"byteLength":13440,
			"byteOffset":2316064,
			"target":34963
		}
	],
	"buffers":[
		{
			"byteLength":2329504,
			"uri":"scene.bin"
		}
	]
}
